# xmcd
#
# Track frame offsets:
#	150
#	11157
#	25104
#	39677
#	56925
#	66427
#	79858
#	90057
#	102261
#	116584
#
# Disc length: 1703 seconds
#
# Revision: 0
# Processed by: cddbd v1.4PL0 Copyright (c) Steve Scherf et al.
# Submitted via: EasyCDDAExtractor 4.6.0.1
#
DISCID=7d06a50a
DTITLE=Bill Block - If I'm Realy Going Places
DYEAR=1900
DGENRE=Country
TTITLE0=Being There With You
TTITLE1=Close The Door
TTITLE2=If I'm Realy Going Places
TTITLE3=I Think I Told A Lie
TTITLE4=Home Ain't Home
TTITLE5=Sleeping Beauty
TTITLE6=Jeannie
TTITLE7=Just Pretend
TTITLE8=I Might Fall In Like With You
TTITLE9=Louisiana Nursery Rhyme
EXTD=
EXTT0=
EXTT1=
EXTT2=
EXTT3=
EXTT4=
EXTT5=
EXTT6=
EXTT7=
EXTT8=
EXTT9=
PLAYORDER=
